<?xml version="1.0" encoding="utf-8"?>
<!-- Generator: Adobe Illustrator 27.1.1, SVG Export Plug-In . SVG Version: 6.00 Build 0)  -->
<svg version="1.1" xmlns="http://www.w3.org/2000/svg" xmlns:xlink="http://www.w3.org/1999/xlink" x="0px" y="0px"
	 viewBox="0 0 800 500" style="enable-background:new 0 0 800 500;" xml:space="preserve">
<style type="text/css">
	.st0{fill:#303030;}
	.st1{fill:#808080;}
	.st2{fill:#DEDEDE;}
	.st3{fill:#F5F5F5;}
	.st4{fill:#FFFFFF;}
	.st5{fill:#5B5B5B;}
</style>
<g id="Layer_2">
</g>
<g id="illustration">
	<g>
		<g>
			<path class="st0" d="M475,295c-21.8,7.7-46.6,1-61.6-16.6l-67.5-70.6c-1.7-2-1.4-4.9,0.5-6.6c2-1.7,4.9-1.4,6.6,0.5l67.5,70.6
				c12.5,14.7,33.1,20.2,51.3,13.8c12.9-4.6,23.2-14.5,28.1-27.3c0,0,0-0.1,0-0.1c4.4-10.4,6.6-21.2,6.5-31.8c0-5.7,9.4-6.8,9.4-0.5
				c0.1,12-2.3,24.2-7.2,36C502.8,277.7,490.5,289.6,475,295z"/>
		</g>
		<g>
			<path class="st1" d="M507.3,267.2c-0.2,0-0.5-0.1-0.7-0.2l-8.3-4.4c-0.7-0.4-1-1.3-0.6-2c0.4-0.7,1.3-1,2-0.6l8.3,4.4
				c0.7,0.4,1,1.3,0.6,2C508.4,266.9,507.9,267.2,507.3,267.2z"/>
		</g>
		<g>
			<g>
				<path class="st2" d="M456.5,299.7c-16.7,0-33.1-7.2-44.2-20.3l-67.4-70.5c-1.1-1.3-1.7-2.9-1.5-4.6c0.1-1.7,0.9-3.2,2.2-4.2
					c2.6-2.2,6.5-1.9,8.7,0.7l67.4,70.5c12.2,14.3,32.1,19.7,49.8,13.5c12.5-4.4,22.4-14,27.2-26.4l0.1-0.1
					c4.3-10.2,6.5-20.8,6.4-31.3c0-3.9,3.4-6.3,6.6-6.3c0,0,0,0,0,0c3.4,0,5.7,2.3,5.8,5.7c0.1,12.3-2.4,24.6-7.4,36.6
					c-6.1,15.7-18.8,27.9-34.7,33.5l0,0C469.3,298.6,462.9,299.7,456.5,299.7z M349.5,201.6c-0.7,0-1.5,0.3-2.1,0.8
					c-0.7,0.6-1,1.3-1.1,2.2c-0.1,0.9,0.2,1.7,0.8,2.3l67.4,70.5c14.7,17.2,38.8,23.7,60,16.2l0,0c15.1-5.3,27.1-16.9,32.9-31.8
					c4.8-11.6,7.2-23.5,7.1-35.4c0-2.5-1.9-2.7-2.8-2.7c0,0,0,0,0,0c-1.8,0-3.6,1.2-3.6,3.3c0,10.9-2.2,21.8-6.7,32.4
					c-5.2,13.3-15.7,23.5-29.1,28.2c-18.8,6.6-40.1,0.9-53-14.3L352,202.8C351.3,202,350.4,201.6,349.5,201.6z M475,295L475,295
					L475,295z"/>
			</g>
		</g>
		<rect x="362.4" y="278.9" transform="matrix(0.8123 -0.5833 0.5833 0.8123 -96.974 267.7162)" width="10" height="11.1"/>
		<polygon class="st2" points="510.5,258 501.6,255 503.8,244.8 513.1,246.4 		"/>
		<path class="st1" d="M295.9,313.6h129.2V202.3c0-16-12.9-28.9-28.9-28.9h-71.4c-16,0-28.9,12.9-28.9,28.9V313.6z"/>
		<g>
			<path class="st2" d="M425.1,315.1H295.9c-0.8,0-1.5-0.7-1.5-1.5V202.3c0-16.8,13.6-30.4,30.4-30.4h71.4
				c16.8,0,30.4,13.6,30.4,30.4v111.3C426.6,314.4,426,315.1,425.1,315.1z M297.4,312.1h126.2V202.3c0-15.1-12.3-27.4-27.4-27.4
				h-71.4c-15.1,0-27.4,12.3-27.4,27.4V312.1z"/>
		</g>
		<path class="st3" d="M347.1,248.5C347.1,248.5,347.1,248.5,347.1,248.5C347.1,248.5,347.1,248.5,347.1,248.5z"/>
		<g>
			<path class="st2" d="M319.4,240.5h-23.3c-0.8,0-1.5-0.7-1.5-1.5v-20.8c0-0.8,0.7-1.5,1.5-1.5h23.3c6.6,0,11.9,5.3,11.9,11.9
				S325.9,240.5,319.4,240.5z M297.6,237.5h21.8c4.9,0,8.9-4,8.9-8.9s-4-8.9-8.9-8.9h-21.8V237.5z"/>
		</g>
		<g>
			<path class="st0" d="M389.3,297h-12.2c-10.8,0-19.6-8.8-19.6-19.6v-59.8c0-10.3,8.4-18.7,18.7-18.7h13.1
				c14.2,0,25.8,11.5,25.8,25.8v46.5C415.1,285.4,403.6,297,389.3,297z"/>
			<g>
				<path class="st2" d="M389.3,298.5h-12.2c-11.6,0-21.1-9.5-21.1-21.1v-59.8c0-11.1,9.1-20.2,20.2-20.2h13.1
					c15.1,0,27.3,12.2,27.3,27.3v46.5C416.6,286.2,404.4,298.5,389.3,298.5z M376.2,200.4c-9.5,0-17.2,7.7-17.2,17.2v59.8
					c0,10,8.1,18.1,18.1,18.1h12.2c13.4,0,24.3-10.9,24.3-24.3v-46.5c0-13.4-10.9-24.3-24.3-24.3H376.2z"/>
			</g>
			<path d="M375.5,297L375.5,297c-15.9,0-28.8-12.9-28.8-28.8v-41.5c0-15.4,12.5-27.8,27.8-27.8h0.9c15.9,0,28.8,12.9,28.8,28.8
				v40.5C404.3,284.1,391.4,297,375.5,297z"/>
			<polygon class="st4" points="404.3,226.6 390.8,237.3 375.9,225.3 361.1,239.5 346.7,226.3 346.7,245.2 360.8,256.4 375.9,246.2 
				390.7,256.1 404.3,245.5 			"/>
			<path class="st0" d="M404.3,236l-13.6,13.6l-14.8-14.8l-15.1,15.1l-14.1-14.1v9.5l14.1,14.1l13.9-13.9c0.6-0.6,1.6-0.6,2.3,0
				l13.7,13.7l13.6-13.6V236z"/>
			<g>
				<path class="st2" d="M360.8,251.4c-0.4,0-0.8-0.1-1.1-0.4l-14.1-14.1c-0.6-0.6-0.6-1.5,0-2.1s1.5-0.6,2.1,0l13,13l14-14
					c0.6-0.6,1.6-0.6,2.1,0l13.8,13.8l12.5-12.5c0.6-0.6,1.5-0.6,2.1,0s0.6,1.5,0,2.1l-13.6,13.6c-0.6,0.6-1.5,0.6-2.1,0l-13.8-13.8
					l-14,14C361.6,251.2,361.2,251.4,360.8,251.4z"/>
			</g>
			<g>
				<path class="st2" d="M360.8,239.8c-0.4,0-0.7-0.1-1-0.4l-13.7-13c-0.6-0.6-0.6-1.5-0.1-2.1s1.5-0.6,2.1-0.1l12.6,12l14-14
					c0.6-0.6,1.5-0.6,2.1,0l13.8,13.8l11.7-11.7c0.6-0.6,1.5-0.6,2.1,0c0.6,0.6,0.6,1.5,0,2.1l-12.7,12.7c-0.6,0.6-1.5,0.6-2.1,0
					l-13.8-13.8l-14,14C361.6,239.6,361.2,239.8,360.8,239.8z"/>
			</g>
			<g>
				<path class="st2" d="M360.8,262.8c-0.4,0-0.8-0.1-1.1-0.4l-14.1-14.1c-0.6-0.6-0.6-1.5,0-2.1s1.5-0.6,2.1,0l13,13l14-14
					c0.6-0.6,1.5-0.6,2.1,0l13.8,13.8l12.5-12.5c0.6-0.6,1.5-0.6,2.1,0s0.6,1.5,0,2.1l-13.6,13.6c-0.6,0.6-1.5,0.6-2.1,0l-13.8-13.8
					l-14,14C361.6,262.7,361.2,262.8,360.8,262.8z"/>
			</g>
			<g>
				<path class="st2" d="M375.5,298.5c-16.7,0-30.3-13.6-30.3-30.3v-40.5c0-16.7,13.6-30.3,30.3-30.3c16.7,0,30.3,13.6,30.3,30.3
					v40.5C405.8,284.9,392.2,298.5,375.5,298.5z M375.5,200.4c-15,0-27.3,12.2-27.3,27.3v40.5c0,15,12.2,27.3,27.3,27.3
					c15,0,27.3-12.2,27.3-27.3v-40.5C402.8,212.6,390.6,200.4,375.5,200.4z"/>
			</g>
		</g>
		<g>
			<path d="M512.6,217.5c0.4,0.1,0.9,0.1,1.3,0c7.7-0.8,14.7-5.9,18.1-13c3.5-7.4,2.4-15.9-3-23.9c-1.4-2.1-4.3-2.7-6.5-1.3
				c-2.1,1.4-2.7,4.3-1.3,6.5c3.5,5.3,4.3,10.4,2.3,14.8c-1.9,4-6.2,7.2-10.6,7.6c-2.6,0.3-4.4,2.6-4.2,5.1
				C509,215.5,510.6,217.1,512.6,217.5z"/>
		</g>
		<g>
			<g>
				<path class="st2" d="M513.4,219c-0.4,0-0.7,0-1.1-0.1l0,0c-2.7-0.5-4.8-2.7-5.1-5.5c-0.2-1.6,0.3-3.2,1.4-4.5
					c1-1.3,2.5-2.1,4.2-2.2c3.8-0.4,7.7-3.2,9.3-6.8c1.8-3.9,1.1-8.5-2.1-13.3c-1.9-2.8-1.1-6.7,1.7-8.6c2.8-1.9,6.7-1.1,8.6,1.7
					c5.7,8.5,6.8,17.5,3.1,25.4c-3.5,7.6-11.1,13-19.3,13.8C513.9,219,513.6,219,513.4,219z M512.9,216c0.3,0.1,0.6,0.1,0.9,0
					c7.1-0.7,13.8-5.5,16.9-12.1c3.2-6.9,2.2-14.9-2.8-22.5c-1-1.5-3-1.8-4.4-0.9c-1.5,1-1.8,3-0.9,4.4c3.8,5.7,4.7,11.3,2.4,16.2
					c-2.1,4.5-7,8-11.8,8.5c-0.8,0.1-1.6,0.5-2.1,1.2s-0.8,1.5-0.7,2.3C510.4,214.6,511.5,215.7,512.9,216L512.9,216z"/>
			</g>
		</g>
		<path class="st5" d="M509.1,247.9L509.1,247.9c8.5,0,15.4-6.9,15.4-15.4v-10.9c0-8.5-6.9-15.4-15.4-15.4h0
			c-8.5,0-15.4,6.9-15.4,15.4v10.9C493.7,241,500.6,247.9,509.1,247.9z"/>
		<g>
			<path class="st2" d="M509.1,249.4c-9.3,0-16.9-7.6-16.9-16.9v-10.9c0-9.3,7.6-16.9,16.9-16.9c9.3,0,16.9,7.6,16.9,16.9v10.9
				C526,241.9,518.4,249.4,509.1,249.4z M509.1,207.8c-7.6,0-13.9,6.2-13.9,13.9v10.9c0,7.6,6.2,13.9,13.9,13.9
				c7.6,0,13.9-6.2,13.9-13.9v-10.9C523,214,516.7,207.8,509.1,207.8z"/>
		</g>
		<path class="st0" d="M524.5,227.1v5.4c0,8.5-6.9,15.4-15.4,15.4h0c-8.5,0-15.4-6.9-15.4-15.4v-5.4H524.5z"/>
		<g>
			<path class="st2" d="M509.1,249.4c-9.3,0-16.9-7.6-16.9-16.9v-5.4c0-0.8,0.7-1.5,1.5-1.5s1.5,0.7,1.5,1.5v5.4
				c0,7.6,6.2,13.9,13.9,13.9c7.6,0,13.9-6.2,13.9-13.9v-5.4c0-0.8,0.7-1.5,1.5-1.5s1.5,0.7,1.5,1.5v5.4
				C526,241.9,518.4,249.4,509.1,249.4z"/>
		</g>
		<g>
			<path class="st0" d="M503.7,217.9c-0.4,0.1-0.9,0.1-1.3,0c-7.6-0.8-14.7-5.9-18-13c-3.5-7.4-2.4-15.9,3-23.9
				c1.4-2.1,4.4-2.7,6.5-1.3c2.1,1.4,2.7,4.4,1.3,6.5c-3.6,5.3-4.3,10.4-2.3,14.7c1.9,4.1,6.2,7.2,10.5,7.7c2.6,0.3,4.4,2.6,4.2,5.1
				C507.3,216,505.7,217.6,503.7,217.9z"/>
		</g>
		<g>
			<g>
				<path class="st2" d="M502.9,219.5c-0.2,0-0.4,0-0.6,0c-8.2-0.9-15.7-6.3-19.2-13.9c-3.7-7.9-2.6-16.9,3.1-25.4
					c1.9-2.8,5.8-3.6,8.6-1.7c2.8,1.9,3.6,5.8,1.7,8.6c-3.2,4.8-4,9.4-2.2,13.3c1.7,3.6,5.5,6.4,9.3,6.8c3.4,0.4,5.9,3.4,5.5,6.8
					c-0.3,2.7-2.4,5-5.1,5.4l0,0C503.6,219.5,503.2,219.5,502.9,219.5z M491.3,180.5c-1,0-2,0.5-2.6,1.4c-5.1,7.6-6.1,15.5-2.9,22.5
					c3.1,6.6,9.7,11.4,16.8,12.1c0.3,0,0.6,0,0.9,0l0,0c1.4-0.2,2.5-1.4,2.6-2.8c0.2-1.7-1.1-3.3-2.8-3.5c-4.8-0.5-9.6-4-11.7-8.5
					c-2.3-4.9-1.4-10.5,2.4-16.2c1-1.5,0.6-3.4-0.9-4.4C492.5,180.7,491.9,180.5,491.3,180.5z"/>
			</g>
		</g>
		<g>
			<path class="st2" d="M322.4,304.1c-9.9,0-17.9-8-17.9-17.9s8-17.9,17.9-17.9s17.9,8,17.9,17.9S332.3,304.1,322.4,304.1z
				 M322.4,271.4c-8.2,0-14.9,6.7-14.9,14.9s6.7,14.9,14.9,14.9s14.9-6.7,14.9-14.9S330.6,271.4,322.4,271.4z"/>
		</g>
		<path class="st0" d="M265.3,313.6c5.9-13.2,19.2-22.4,34.5-22.4H325c2.6,0,4.7-2.1,4.7-4.7s-2.1-4.7-4.7-4.7h-25.2
			c-20.6,0-38.2,13.3-44.7,31.8H265.3z"/>
		<g>
			<path class="st1" d="M315,292.7c-0.8,0-1.5-0.7-1.5-1.5v-9.4c0-0.8,0.7-1.5,1.5-1.5s1.5,0.7,1.5,1.5v9.4
				C316.5,292,315.8,292.7,315,292.7z"/>
		</g>
		<g>
			<path class="st1" d="M301.6,292.7c-0.8,0-1.5-0.7-1.5-1.5v-9.4c0-0.8,0.7-1.5,1.5-1.5s1.5,0.7,1.5,1.5v9.4
				C303.1,292,302.5,292.7,301.6,292.7z"/>
		</g>
		<g>
			<path class="st1" d="M289.3,294c-0.6,0-1.2-0.4-1.4-1l-2.6-8.3c-0.3-0.8,0.2-1.6,1-1.9c0.8-0.3,1.6,0.2,1.9,1l2.6,8.3
				c0.3,0.8-0.2,1.6-1,1.9C289.6,294,289.4,294,289.3,294z"/>
		</g>
		<g>
			<rect x="493" y="224.2" class="st2" width="32.5" height="7"/>
		</g>
		<path d="M265.3,313.6c1.3-2.8,2.9-5.5,4.8-7.9h-11.3c-1.4,2.5-2.6,5.2-3.6,7.9H265.3z"/>
		<g>
			<path class="st2" d="M265.3,315.1h-10.1c-0.5,0-0.9-0.2-1.2-0.6s-0.4-0.9-0.2-1.4c6.8-19.6,25.4-32.8,46.1-32.8H325
				c3.4,0,6.2,2.8,6.2,6.2s-2.8,6.2-6.2,6.2h-25.2c-14.3,0-27.3,8.4-33.2,21.5C266.4,314.7,265.9,315.1,265.3,315.1z M257.3,312.1h7
				c6.6-13.6,20.4-22.4,35.5-22.4H325c1.8,0,3.2-1.4,3.2-3.2s-1.4-3.2-3.2-3.2h-25.2C281.1,283.3,264.3,294.7,257.3,312.1z"/>
		</g>
	</g>
	<g>
		<g>
			<path class="st1" d="M600.4,241.1c-0.6,0-1.2-0.4-1.4-1l-5.3-14.3c-0.3-0.8,0.1-1.6,0.9-1.9c0.8-0.3,1.6,0.1,1.9,0.9l5.3,14.3
				c0.3,0.8-0.1,1.6-0.9,1.9C600.7,241.1,600.5,241.1,600.4,241.1z"/>
		</g>
		<g>
			<path class="st1" d="M590.6,236.7c-0.6,0-1.2-0.4-1.4-1c-0.3-0.8,0.1-1.6,0.9-1.9l14-5.5c0.8-0.3,1.6,0.1,1.9,0.9
				c0.3,0.8-0.1,1.6-0.9,1.9l-14,5.5C591,236.7,590.8,236.7,590.6,236.7z"/>
		</g>
	</g>
	<g>
		<g>
			<g>
				<g>
					<path class="st1" d="M436.8,186.6c-0.6,0-1.1-0.3-1.4-0.9c-0.4-0.7,0-1.6,0.7-2l22.6-10.8c0.7-0.4,1.6,0,2,0.7
						c0.4,0.7,0,1.6-0.7,2l-22.6,10.8C437.2,186.5,437,186.6,436.8,186.6z"/>
				</g>
			</g>
		</g>
		<g>
			<g>
				<g>
					<path class="st1" d="M462.6,204.1c-0.1,0-0.1,0-0.2,0l-19.9-2.4c-0.8-0.1-1.4-0.8-1.3-1.7s0.8-1.4,1.7-1.3l19.9,2.4
						c0.8,0.1,1.4,0.8,1.3,1.7C464,203.6,463.4,204.1,462.6,204.1z"/>
				</g>
			</g>
		</g>
		<g>
			<g>
				<g>
					<path class="st1" d="M454.9,227c-0.3,0-0.5-0.1-0.8-0.2l-11.7-7.3c-0.7-0.4-0.9-1.4-0.5-2.1c0.4-0.7,1.4-0.9,2.1-0.5l11.7,7.3
						c0.7,0.4,0.9,1.4,0.5,2.1C455.9,226.7,455.4,227,454.9,227z"/>
				</g>
			</g>
		</g>
		<g>
			<path class="st1" d="M428.4,173.6c-0.3,0-0.6-0.1-0.8-0.2c-0.7-0.4-0.9-1.4-0.5-2.1l10.5-16.7c0.4-0.7,1.4-0.9,2.1-0.5
				c0.7,0.4,0.9,1.4,0.5,2.1l-10.5,16.7C429.4,173.4,428.9,173.6,428.4,173.6z"/>
		</g>
		<g>
			<path class="st1" d="M415.1,161.8c-0.1,0-0.1,0-0.2,0c-0.8-0.1-1.4-0.9-1.3-1.7l1.9-14.3c0.1-0.8,0.9-1.4,1.7-1.3
				c0.8,0.1,1.4,0.9,1.3,1.7l-1.9,14.3C416.5,161.2,415.8,161.8,415.1,161.8z"/>
		</g>
	</g>
	<g>
		<path class="st1" d="M563.1,254.3c-0.8,0-1.5-0.7-1.5-1.5V240c0-1.6-1.3-2.9-2.9-2.9h-5.2c-2.7,0-4.8-2.2-4.8-4.8s2.2-4.8,4.8-4.8
			h13.4c1,0,1.8-0.8,1.8-1.8v-0.6c0-1-0.8-1.8-1.8-1.8h-9.2c-0.8,0-1.5-0.7-1.5-1.5s0.7-1.5,1.5-1.5h9.2c2.7,0,4.8,2.2,4.8,4.8v0.6
			c0,2.7-2.2,4.8-4.8,4.8h-13.4c-1,0-1.8,0.8-1.8,1.8c0,1,0.8,1.8,1.8,1.8h5.2c3.3,0,5.9,2.6,5.9,5.9v12.8
			C564.6,253.6,563.9,254.3,563.1,254.3z"/>
	</g>
	<g>
		<path d="M548.8,313.6h29.5c3.3,0,6-2.6,6.1-5.9l1.8-48.1H541l1.8,48.1C542.9,310.9,545.6,313.6,548.8,313.6z"/>
		<path d="M584.4,295.5c0.8,0.2,1.5,0.3,2.3,0.3c5.1,0,9.3-4.2,9.3-9.3c0-5.1-4.2-9.3-9.3-9.3c-0.6,0-1.1,0.1-1.7,0.2l0.3-8.7
			c0.5,0,0.9-0.1,1.4-0.1c9.9,0,17.9,8,17.9,17.9c0,9.9-8,17.9-17.9,17.9c-0.9,0-1.8-0.1-2.7-0.2L584.4,295.5z"/>
		<g>
			<path class="st2" d="M585.9,297.4c-0.2,0-0.5,0-0.9-0.1c-0.8-0.2-1.3-1-1.1-1.8c0.2-0.8,1-1.3,1.8-1.1c0,0,0.1,0,0.1,0
				c0.2,0,0.5-0.1,0.9-0.1c4.3,0,7.8-3.5,7.8-7.8s-3.5-7.8-7.8-7.8c-0.8,0-1.5-0.7-1.5-1.5s0.7-1.5,1.5-1.5
				c5.9,0,10.8,4.8,10.8,10.8s-4.8,10.8-10.8,10.8c-0.2,0-0.3,0-0.3,0C586.2,297.3,586.1,297.4,585.9,297.4z"/>
		</g>
		<g>
			<path class="st2" d="M586.7,305.9c-0.9,0-1.3,0-2.3-0.2c-0.8-0.1-1.4-0.9-1.3-1.7c0.1-0.8,0.9-1.4,1.7-1.3c0.8,0.1,1,0.1,1.9,0.1
				c9.1,0,16.4-7.4,16.4-16.4s-7.4-16.4-16.4-16.4c-0.8,0-1.5-0.7-1.5-1.5s0.7-1.5,1.5-1.5c10.7,0,19.4,8.7,19.4,19.4
				C606.2,297.2,597.4,305.9,586.7,305.9z"/>
		</g>
		<g>
			<path class="st2" d="M578.4,315.1h-29.5c-4.1,0-7.4-3.2-7.6-7.3l-1.8-48.1c0-0.4,0.1-0.8,0.4-1.1c0.3-0.3,0.7-0.5,1.1-0.5h45.3
				c0.4,0,0.8,0.2,1.1,0.5c0.3,0.3,0.4,0.7,0.4,1.1l-1.8,48.1C585.8,311.8,582.5,315.1,578.4,315.1z M542.5,261.1l1.7,46.6
				c0.1,2.5,2.1,4.4,4.6,4.4h29.5c2.5,0,4.5-1.9,4.6-4.4l1.7-46.6H542.5z"/>
		</g>
		<polygon class="st2" points="588.2,295.6 591.9,303.7 584.1,304.2 584.4,295.5 		"/>
	</g>
	<g>
		<path class="st1" d="M255.4,270c-0.3,0-0.7-0.1-1-0.2c-1.1-0.4-1.8-1.3-1.9-2.4l-0.6-5.9l-5.2-2.8c-1-0.5-1.6-1.6-1.5-2.7
			c0-1.1,0.7-2.1,1.7-2.6l5.5-2.4l1.1-5.8c0.2-1.1,1-2,2.1-2.3c1.1-0.3,2.2,0,3,0.9l4,4.4l5.9-0.8c1.1-0.1,2.2,0.4,2.8,1.3
			c0.6,0.9,0.7,2.1,0.1,3.1l-3,5.2l2.5,5.3c0.5,1,0.3,2.2-0.4,3.1c-0.7,0.9-1.8,1.3-2.9,1l-5.8-1.3l-4.3,4.1
			C256.9,269.7,256.1,270,255.4,270z M248.3,256l5.1,2.8c0.8,0.5,1.4,1.3,1.5,2.3l0.6,5.8l4.2-4c0.7-0.7,1.7-0.9,2.6-0.7l5.7,1.2
			l-2.5-5.3c-0.4-0.9-0.4-1.9,0.1-2.7l2.9-5l-5.8,0.7c-1,0.1-1.9-0.2-2.6-1l-3.9-4.3l-1.1,5.7c-0.2,0.9-0.8,1.7-1.7,2.1L248.3,256z
			 M268.2,263.4l-0.3,1.5L268.2,263.4C268.2,263.4,268.2,263.4,268.2,263.4z"/>
	</g>
	<g>
		<path class="st1" d="M519.1,298.5c-3.8,0-6.9-3.1-6.9-6.9c0-3.8,3.1-6.9,6.9-6.9s6.9,3.1,6.9,6.9
			C526,295.4,522.9,298.5,519.1,298.5z M519.1,287.8c-2.1,0-3.9,1.7-3.9,3.9s1.7,3.9,3.9,3.9s3.9-1.7,3.9-3.9
			S521.2,287.8,519.1,287.8z"/>
	</g>
</g>
</svg>
