<svg width="1579" height="519" viewBox="0 0 1579 519" fill="none" xmlns="http://www.w3.org/2000/svg">
<path d="M259.5 108.691C206.184 108.691 161.517 148.362 154.955 200.411L154.806 201.977V202.275V202.574C154.433 204.885 154.284 207.197 154.209 209.583V355.962C154.209 384.895 177.4 408.459 206.258 408.906H207.228C236.16 408.906 259.724 385.715 260.172 356.857V349.027C218.711 345.224 186.87 310.773 186.199 269.164V237.919C186.721 208.987 210.583 185.87 239.516 186.318C267.778 186.765 290.596 209.583 291.118 237.919V313.681C334.219 300.259 364.941 260.216 364.941 213.535C364.866 155.67 317.664 108.691 259.5 108.691Z" fill="white"/>
<path d="M238.921 217.176H238.549C226.916 217.176 217.371 226.422 216.998 238.055V267.808C216.998 292.64 234.969 313.817 259.502 317.769L260.174 317.844V238.726C260.174 226.944 250.703 217.399 238.921 217.176Z" fill="white"/>
<path d="M259.5 0C116.178 0 0 116.178 0 259.5C0 402.822 116.178 519 259.5 519C402.822 519 519 402.822 519 259.5C519 116.178 402.822 0 259.5 0ZM293.28 345.851L291.49 346.298L291.043 346.373V356.589C291.043 401.852 255.175 438.913 209.912 440.404H208.569H207.153C161.367 440.404 124.083 403.716 123.337 358.006V356.589V211.03C123.337 207.227 123.561 203.499 124.083 199.696L124.157 199.025L124.381 197.309C132.658 131.167 188.361 80.609 255.473 78.5957L257.487 78.5211H259.575C334.815 78.5211 395.812 139.295 395.812 214.311C395.737 277.173 352.637 330.788 293.28 345.851Z" fill="white"/>
<path d="M661.2 294.225V253.525H698.6C706.483 253.525 712.808 251.233 717.575 246.65C722.342 241.883 724.725 235.742 724.725 228.225C724.725 223.275 723.533 218.875 721.15 215.025C718.95 211.175 715.742 208.242 711.525 206.225C707.492 204.025 702.725 202.925 697.225 202.925H661.2V162.5L698.325 162.225C712.258 162.042 724.633 164.792 735.45 170.475C746.267 176.158 754.7 183.95 760.75 193.85C766.983 203.75 770.1 215.208 770.1 228.225C770.1 240.875 767.075 252.242 761.025 262.325C755.158 272.225 746.908 280.017 736.275 285.7C725.642 291.383 713.45 294.225 699.7 294.225H661.2ZM622.7 355V162.5H666.975V355H622.7ZM791.621 355V162.5H835.896V355H791.621ZM873.262 355V162.5H917.537V355H873.262ZM905.437 355V314.3H1000.04V355H905.437ZM905.437 277.725V238.4H985.462V277.725H905.437ZM905.437 203.2V162.5H998.662V203.2H905.437ZM1121.56 358.3C1102.5 358.3 1085.63 354.083 1070.96 345.65C1056.48 337.033 1045.02 325.3 1036.59 310.45C1028.34 295.417 1024.21 278.183 1024.21 258.75C1024.21 239.317 1028.34 222.175 1036.59 207.325C1045.02 192.292 1056.48 180.558 1070.96 172.125C1085.63 163.508 1102.5 159.2 1121.56 159.2C1135.5 159.2 1148.24 161.675 1159.79 166.625C1171.52 171.392 1181.6 178.175 1190.04 186.975C1198.65 195.775 1205.25 205.95 1209.84 217.5L1168.31 231.525C1165.56 225.108 1161.8 219.517 1157.04 214.75C1152.45 209.983 1147.14 206.317 1141.09 203.75C1135.22 201.183 1128.71 199.9 1121.56 199.9C1111.48 199.9 1102.5 202.375 1094.61 207.325C1086.73 212.275 1080.59 219.242 1076.19 228.225C1071.79 237.025 1069.59 247.2 1069.59 258.75C1069.59 270.3 1071.79 280.567 1076.19 289.55C1080.77 298.35 1087 305.317 1094.89 310.45C1102.95 315.4 1112.12 317.875 1122.39 317.875C1129.9 317.875 1136.6 316.5 1142.46 313.75C1148.33 311 1153.37 307.15 1157.59 302.2C1161.99 297.25 1165.75 291.567 1168.86 285.15L1210.39 299.175C1205.99 310.908 1199.48 321.267 1190.86 330.25C1182.25 339.05 1172.07 345.925 1160.34 350.875C1148.6 355.825 1135.68 358.3 1121.56 358.3ZM1234.47 355V162.5H1278.74V355H1234.47ZM1266.64 355V314.3H1361.24V355H1266.64ZM1266.64 277.725V238.4H1346.67V277.725H1266.64ZM1266.64 203.2V162.5H1359.87V203.2H1266.64ZM1461.87 358.3C1452.52 358.3 1443.54 357.108 1434.92 354.725C1426.49 352.158 1418.79 348.767 1411.82 344.55C1405.04 340.15 1399.44 335.292 1395.04 329.975C1390.64 324.475 1387.89 318.608 1386.79 312.375L1430.52 300C1432.54 305.317 1436.02 309.992 1440.97 314.025C1446.1 317.875 1452.52 319.892 1460.22 320.075C1467.74 320.258 1473.97 318.517 1478.92 314.85C1484.05 311.183 1486.62 306.417 1486.62 300.55C1486.62 295.967 1484.79 291.933 1481.12 288.45C1477.64 284.967 1472.59 282.308 1465.99 280.475L1438.77 273.6C1429.24 271.217 1420.89 267.458 1413.74 262.325C1406.78 257.192 1401.28 250.958 1397.24 243.625C1393.39 236.108 1391.47 227.583 1391.47 218.05C1391.47 199.533 1397.61 185.142 1409.89 174.875C1422.18 164.425 1439.5 159.2 1461.87 159.2C1474.15 159.2 1484.88 160.942 1494.04 164.425C1503.21 167.725 1511 172.675 1517.42 179.275C1524.02 185.875 1529.24 194.125 1533.09 204.025L1489.64 216.95C1488.18 212 1484.97 207.508 1480.02 203.475C1475.25 199.442 1469.02 197.425 1461.32 197.425C1453.62 197.425 1447.57 199.167 1443.17 202.65C1438.95 206.133 1436.84 211.175 1436.84 217.775C1436.84 222.358 1438.59 226.208 1442.07 229.325C1445.55 232.258 1450.32 234.458 1456.37 235.925L1483.59 242.8C1499.18 246.65 1511.28 253.892 1519.89 264.525C1528.69 274.975 1533.09 286.892 1533.09 300.275C1533.09 312.375 1530.25 322.733 1524.57 331.35C1519.07 339.967 1511 346.658 1500.37 351.425C1489.74 356.008 1476.9 358.3 1461.87 358.3Z" fill="white"/>
<path d="M1551.56 181V162.55H1560.63C1561.58 162.55 1562.51 162.775 1563.39 163.225C1564.3 163.658 1565.04 164.308 1565.62 165.175C1566.22 166.025 1566.52 167.075 1566.52 168.325C1566.52 169.575 1566.21 170.658 1565.6 171.575C1565 172.475 1564.23 173.167 1563.29 173.65C1562.37 174.133 1561.41 174.375 1560.42 174.375H1553.4V171.85H1559.55C1560.42 171.85 1561.2 171.55 1561.88 170.95C1562.58 170.333 1562.93 169.458 1562.93 168.325C1562.93 167.158 1562.58 166.325 1561.88 165.825C1561.2 165.325 1560.45 165.075 1559.63 165.075H1554.86V181H1551.56ZM1562.57 172.425L1567.29 181H1563.6L1559.01 172.425H1562.57ZM1558.5 192C1555.66 192 1553.01 191.483 1550.53 190.45C1548.05 189.417 1545.88 187.983 1544 186.15C1542.12 184.317 1540.65 182.192 1539.59 179.775C1538.53 177.358 1538 174.767 1538 172C1538 169.233 1538.53 166.642 1539.59 164.225C1540.65 161.808 1542.12 159.683 1544 157.85C1545.88 156.017 1548.05 154.583 1550.53 153.55C1553.01 152.517 1555.66 152 1558.5 152C1561.34 152 1563.99 152.517 1566.47 153.55C1568.95 154.583 1571.12 156.017 1573 157.85C1574.88 159.683 1576.35 161.808 1577.41 164.225C1578.47 166.642 1579 169.233 1579 172C1579 174.767 1578.47 177.358 1577.41 179.775C1576.35 182.192 1574.88 184.317 1573 186.15C1571.12 187.983 1568.95 189.417 1566.47 190.45C1563.99 191.483 1561.34 192 1558.5 192ZM1558.5 188.275C1561.57 188.275 1564.37 187.542 1566.88 186.075C1569.41 184.608 1571.42 182.65 1572.93 180.2C1574.43 177.733 1575.18 175 1575.18 172C1575.18 169 1574.43 166.275 1572.93 163.825C1571.42 161.358 1569.41 159.392 1566.88 157.925C1564.37 156.458 1561.57 155.725 1558.5 155.725C1555.42 155.725 1552.62 156.458 1550.09 157.925C1547.58 159.392 1545.58 161.358 1544.07 163.825C1542.57 166.275 1541.82 169 1541.82 172C1541.82 175 1542.57 177.733 1544.07 180.2C1545.58 182.65 1547.58 184.608 1550.09 186.075C1552.62 187.542 1555.42 188.275 1558.5 188.275Z" fill="white"/>
</svg>
