<svg width="3000" height="640" viewBox="0 0 3000 640" fill="none" xmlns="http://www.w3.org/2000/svg">
<path d="M319.579 133.855C253.918 133.855 198.91 182.711 190.828 246.811L190.645 248.739V249.107V249.474C190.186 252.321 190.002 255.168 189.91 258.106V438.376C189.91 474.007 218.47 503.027 254.01 503.578H255.204C290.835 503.578 319.855 475.018 320.406 439.478V429.835C269.346 425.152 230.133 382.725 229.307 331.482V293.003C229.95 257.372 259.336 228.903 294.968 229.454C329.773 230.005 357.874 258.106 358.517 293.003V386.306C411.597 369.776 449.432 320.462 449.432 262.974C449.34 191.711 391.21 133.855 319.579 133.855Z" fill="white"/>
<path d="M294.235 267.457H293.776C279.45 267.457 267.695 278.844 267.236 293.17V329.812C267.236 360.393 289.368 386.473 319.582 391.341L320.408 391.433V293.997C320.408 279.487 308.745 267.733 294.235 267.457Z" fill="white"/>
<path d="M319.581 0C143.077 0 0 143.077 0 319.581C0 496.086 143.077 639.163 319.581 639.163C496.086 639.163 639.163 496.086 639.163 319.581C639.163 143.077 496.086 0 319.581 0ZM361.182 425.925L358.978 426.476L358.427 426.568V439.149C358.427 494.892 314.255 540.533 258.512 542.37H256.859H255.114C198.728 542.37 152.811 497.188 151.893 440.894V439.149V259.889C151.893 255.206 152.168 250.614 152.811 245.931L152.903 245.104L153.179 242.992C163.372 161.535 231.972 99.2722 314.622 96.7927L317.102 96.7009H319.673C412.333 96.7009 487.453 171.545 487.453 263.93C487.361 341.346 434.282 407.374 361.182 425.925Z" fill="white"/>
<path d="M1800.33 301.59C1788.82 301.59 1777.75 300.122 1767.14 297.187C1756.75 294.026 1747.27 289.849 1738.69 284.656C1730.34 279.237 1723.45 273.254 1718.03 266.707C1712.61 259.933 1709.23 252.708 1707.87 245.032L1761.72 229.792C1764.21 236.339 1768.49 242.097 1774.59 247.064C1780.91 251.805 1788.82 254.289 1798.3 254.515C1807.55 254.74 1815.23 252.595 1821.33 248.08C1827.65 243.564 1830.81 237.694 1830.81 230.469C1830.81 224.824 1828.55 219.857 1824.04 215.567C1819.75 211.278 1813.54 208.004 1805.41 205.746L1771.88 197.279C1760.14 194.344 1749.87 189.716 1741.06 183.394C1732.48 177.072 1725.71 169.395 1720.74 160.364C1716 151.107 1713.63 140.609 1713.63 128.868C1713.63 106.064 1721.19 88.3404 1736.32 75.6968C1751.45 62.8273 1772.78 56.3926 1800.33 56.3926C1815.46 56.3926 1828.67 58.5375 1839.95 62.8273C1851.24 66.8913 1860.84 72.9874 1868.74 81.1155C1876.87 89.2435 1883.3 99.4037 1888.05 111.596L1834.54 127.513C1832.73 121.417 1828.78 115.886 1822.68 110.918C1816.81 105.951 1809.14 103.468 1799.65 103.468C1790.17 103.468 1782.72 105.613 1777.3 109.902C1772.11 114.192 1769.51 120.401 1769.51 128.529C1769.51 134.174 1771.66 138.915 1775.95 142.753C1780.24 146.366 1786.11 149.075 1793.56 150.881L1827.08 159.348C1846.28 164.09 1861.18 173.008 1871.79 186.103C1882.63 198.973 1888.05 213.648 1888.05 230.13C1888.05 245.032 1884.55 257.788 1877.55 268.4C1870.77 279.012 1860.84 287.253 1847.74 293.123C1834.65 298.767 1818.84 301.59 1800.33 301.59Z" fill="white"/>
<path d="M1520.28 297.525V60.4561H1574.81V297.525H1520.28ZM1559.91 297.525V247.402H1676.41V297.525H1559.91ZM1559.91 202.359V153.929H1658.46V202.359H1559.91ZM1559.91 110.579V60.4561H1674.71V110.579H1559.91Z" fill="white"/>
<path d="M1381.23 301.59C1357.75 301.59 1336.98 296.397 1318.92 286.011C1301.08 275.399 1286.97 260.949 1276.59 242.661C1266.43 224.147 1261.35 202.924 1261.35 178.991C1261.35 155.058 1266.43 133.948 1276.59 115.66C1286.97 97.1459 1301.08 82.6959 1318.92 72.3101C1336.98 61.6984 1357.75 56.3926 1381.23 56.3926C1398.39 56.3926 1414.09 59.4406 1428.31 65.5366C1442.76 71.4069 1455.18 79.7608 1465.56 90.5982C1476.18 101.436 1484.3 113.966 1489.95 128.191L1438.81 145.463C1435.42 137.56 1430.79 130.674 1424.92 124.804C1419.28 118.934 1412.73 114.418 1405.28 111.257C1398.06 108.096 1390.04 106.516 1381.23 106.516C1368.82 106.516 1357.75 109.564 1348.05 115.66C1338.34 121.756 1330.77 130.336 1325.35 141.399C1319.94 152.236 1317.23 164.767 1317.23 178.991C1317.23 193.215 1319.94 205.859 1325.35 216.922C1331 227.76 1338.68 236.339 1348.38 242.661C1358.32 248.757 1369.61 251.805 1382.25 251.805C1391.51 251.805 1399.75 250.112 1406.97 246.725C1414.2 243.338 1420.41 238.597 1425.6 232.501C1431.02 226.405 1435.65 219.406 1439.49 211.503L1490.63 228.776C1485.21 243.225 1477.19 255.982 1466.58 267.045C1455.97 277.883 1443.44 286.349 1428.99 292.446C1414.54 298.542 1398.62 301.59 1381.23 301.59Z" fill="white"/>
<path d="M1075.45 297.525V60.4561H1129.97V297.525H1075.45ZM1115.07 297.525V247.402H1231.57V297.525H1115.07ZM1115.07 202.359V153.929H1213.62V202.359H1115.07ZM1115.07 110.579V60.4561H1229.88V110.579H1115.07Z" fill="white"/>
<path d="M974.9 297.525V60.4561H1029.43V297.525H974.9Z" fill="white"/>
<path d="M814.285 222.68V172.556H860.344C870.053 172.556 877.842 169.734 883.712 164.09C889.583 158.219 892.518 150.656 892.518 141.399C892.518 135.303 891.05 129.884 888.115 125.143C885.406 120.401 881.454 116.789 876.262 114.305C871.294 111.596 865.424 110.241 858.651 110.241H814.285V60.4567L860.005 60.118C877.165 59.8922 892.405 63.2789 905.726 70.2781C919.047 77.2773 929.433 86.8729 936.883 99.0651C944.56 111.257 948.398 125.368 948.398 141.399C948.398 156.978 944.673 170.976 937.222 183.394C929.997 195.586 919.837 205.182 906.742 212.181C893.647 219.18 878.632 222.68 861.699 222.68H814.285ZM766.871 297.526V60.4567H821.397V297.526H766.871Z" fill="white"/>
<path d="M2879.49 603.607C2870.79 603.607 2862.66 602.54 2855.1 600.405C2847.55 598.271 2840.82 595.315 2834.91 591.538C2829 587.597 2824.07 583.246 2820.13 578.484C2816.35 573.722 2813.89 568.714 2812.74 563.46L2845.74 553.607C2847.88 559.19 2851.66 564.034 2857.07 568.139C2862.49 572.08 2869.31 574.133 2877.52 574.297C2886.22 574.461 2893.28 572.573 2898.7 568.632C2904.28 564.691 2907.07 559.601 2907.07 553.361C2907.07 547.942 2904.86 543.427 2900.42 539.814C2896.15 536.038 2890.24 533.164 2882.69 531.194L2860.28 525.282C2851.9 523.148 2844.51 519.946 2838.11 515.676C2831.7 511.243 2826.7 505.824 2823.08 499.42C2819.47 493.016 2817.67 485.545 2817.67 477.006C2817.67 460.75 2823 448.107 2833.68 439.075C2844.51 429.88 2859.78 425.282 2879.49 425.282C2890.49 425.282 2900.1 426.924 2908.31 430.208C2916.68 433.328 2923.66 437.844 2929.24 443.755C2934.82 449.666 2939.09 456.645 2942.05 464.691L2909.29 474.79C2907.32 469.207 2903.71 464.445 2898.45 460.504C2893.2 456.563 2886.55 454.593 2878.5 454.593C2870.29 454.593 2863.81 456.481 2859.04 460.258C2854.45 464.034 2852.15 469.371 2852.15 476.267C2852.15 481.686 2853.95 485.955 2857.57 489.075C2861.34 492.195 2866.43 494.576 2872.84 496.218L2895.5 501.883C2910.28 505.496 2921.77 511.982 2929.98 521.341C2938.19 530.701 2942.3 541.128 2942.3 552.622C2942.3 562.803 2939.83 571.752 2934.91 579.469C2929.98 587.023 2922.84 592.934 2913.48 597.203C2904.12 601.473 2892.79 603.607 2879.49 603.607Z" fill="white"/>
<path d="M2685.27 539.569V508.781H2719.75C2724.84 508.781 2729.36 507.713 2733.3 505.579C2737.4 503.444 2740.6 500.488 2742.9 496.712C2745.37 492.935 2746.6 488.666 2746.6 483.904C2746.6 476.514 2743.89 470.521 2738.47 465.923C2733.22 461.326 2726.4 459.027 2718.03 459.027H2685.27V428.239L2719.5 427.992C2731.66 427.828 2742.41 430.209 2751.77 435.135C2761.13 439.897 2768.44 446.465 2773.69 454.84C2778.95 463.214 2781.57 472.902 2781.57 483.904C2781.57 494.741 2778.78 504.429 2773.2 512.968C2767.78 521.342 2760.31 527.91 2750.78 532.672C2741.26 537.27 2730.42 539.569 2718.27 539.569H2685.27ZM2655.46 600.652V428.239H2689.21V600.652H2655.46ZM2750.29 600.652L2710.39 531.441L2736.25 512.968L2788.47 600.652H2750.29Z" fill="white"/>
<path d="M2503.04 600.651V428.237H2536.78V600.651H2503.04ZM2528.65 600.651V569.863H2613.14V600.651H2528.65ZM2528.65 528.237V498.188H2601.81V528.237H2528.65ZM2528.65 459.025V428.237H2612.15V459.025H2528.65Z" fill="white"/>
<path d="M2377.04 543.509V512.475H2413.25C2420.8 512.475 2426.96 510.012 2431.72 505.086C2436.65 500.16 2439.11 493.674 2439.11 485.628C2439.11 480.373 2437.88 475.775 2435.42 471.834C2432.95 467.729 2429.59 464.527 2425.32 462.229C2421.05 459.93 2416.12 458.862 2410.54 459.027H2377.04V428.238L2411.28 427.992C2423.43 427.828 2434.18 430.291 2443.54 435.381C2452.9 440.307 2460.21 447.122 2465.46 455.825C2470.72 464.363 2473.35 474.297 2473.35 485.628C2473.35 496.793 2470.8 506.728 2465.71 515.43C2460.62 524.133 2453.64 531.03 2444.78 536.12C2435.91 541.046 2425.65 543.509 2413.99 543.509H2377.04ZM2347.24 600.652V428.238H2380.98V600.652H2347.24Z" fill="white"/>
<path d="M2224.8 603.608C2207.39 603.608 2191.96 599.831 2178.49 592.278C2165.19 584.561 2154.76 574.051 2147.21 560.751C2139.66 547.286 2135.88 531.933 2135.88 514.692C2135.88 497.122 2139.66 481.687 2147.21 468.386C2154.76 454.922 2165.11 444.413 2178.25 436.859C2191.55 429.306 2206.82 425.529 2224.06 425.529C2241.46 425.529 2256.73 429.388 2269.87 437.106C2283.17 444.659 2293.6 455.168 2301.15 468.633C2308.71 481.933 2312.48 497.286 2312.48 514.692C2312.48 531.933 2308.71 547.286 2301.15 560.751C2293.76 574.051 2283.42 584.561 2270.12 592.278C2256.98 599.831 2241.87 603.608 2224.8 603.608ZM2224.8 572.82C2235.31 572.82 2244.5 570.357 2252.38 565.431C2260.43 560.34 2266.67 553.444 2271.1 544.741C2275.7 536.038 2278 526.022 2278 514.692C2278 503.198 2275.7 493.099 2271.1 484.396C2266.5 475.693 2260.18 468.879 2252.14 463.953C2244.09 458.863 2234.73 456.317 2224.06 456.317C2213.71 456.317 2204.44 458.863 2196.23 463.953C2188.18 468.879 2181.86 475.693 2177.26 484.396C2172.66 493.099 2170.36 503.198 2170.36 514.692C2170.36 526.022 2172.66 536.038 2177.26 544.741C2181.86 553.444 2188.26 560.34 2196.47 565.431C2204.68 570.357 2214.12 572.82 2224.8 572.82Z" fill="white"/>
<path d="M2009.66 600.651V428.237H2043.41V600.651H2009.66ZM2031.34 600.651V569.863H2119.27V600.651H2031.34Z" fill="white"/>
<path d="M1857.23 600.651V428.237H1890.98V600.651H1857.23ZM1882.85 600.651V569.863H1967.33V600.651H1882.85ZM1882.85 528.237V498.188H1956V528.237H1882.85ZM1882.85 459.025V428.237H1966.35V459.025H1882.85Z" fill="white"/>
<path d="M1727.76 600.651L1793.03 428.237H1829.23L1760.76 600.651H1727.76ZM1724.06 600.651L1655.34 428.237H1691.55L1757.07 600.651H1724.06Z" fill="white"/>
<path d="M1519.66 600.651V428.237H1553.4V600.651H1519.66ZM1545.28 600.651V569.863H1629.76V600.651H1545.28ZM1545.28 528.237V498.188H1618.43V528.237H1545.28ZM1545.28 459.025V428.237H1628.77V459.025H1545.28Z" fill="white"/>
<path d="M1394.98 600.651V569.124C1402.86 569.124 1410.17 567.728 1416.9 564.937C1423.64 562.145 1429.47 558.287 1434.39 553.36C1439.48 548.434 1443.42 542.687 1446.21 536.119C1449.01 529.387 1450.4 522.162 1450.4 514.444C1450.4 506.727 1449.01 499.584 1446.21 493.016C1443.42 486.283 1439.48 480.454 1434.39 475.528C1429.47 470.602 1423.64 466.743 1416.9 463.952C1410.17 461.16 1402.86 459.764 1394.98 459.764V428.237C1412.55 428.237 1428.07 431.932 1441.53 439.321C1455.16 446.71 1465.75 456.891 1473.31 469.863C1481.03 482.671 1484.88 497.531 1484.88 514.444C1484.88 531.193 1481.03 546.053 1473.31 559.025C1465.59 571.998 1455 582.178 1441.53 589.567C1428.07 596.957 1412.55 600.651 1394.98 600.651ZM1359.27 600.651V569.124H1394.98V600.651H1359.27ZM1339.81 600.651V428.237H1373.55V600.651H1339.81ZM1359.27 459.764V428.237H1394.98V459.764H1359.27Z" fill="white"/>
<path d="M1137.39 539.569V508.781H1171.88C1176.97 508.781 1181.48 507.713 1185.42 505.579C1189.53 503.444 1192.73 500.488 1195.03 496.712C1197.49 492.935 1198.72 488.666 1198.72 483.904C1198.72 476.514 1196.02 470.521 1190.6 465.923C1185.34 461.326 1178.53 459.027 1170.15 459.027H1137.39V428.239L1171.63 427.992C1183.78 427.828 1194.54 430.209 1203.9 435.135C1213.26 439.897 1220.56 446.465 1225.82 454.84C1231.07 463.214 1233.7 472.902 1233.7 483.904C1233.7 494.741 1230.91 504.429 1225.33 512.968C1219.91 521.342 1212.44 527.91 1202.91 532.672C1193.39 537.27 1182.55 539.569 1170.4 539.569H1137.39ZM1107.59 600.652V428.239H1141.34V600.652H1107.59ZM1202.42 600.652L1162.52 531.441L1188.38 512.968L1240.6 600.652H1202.42Z" fill="white"/>
<path d="M985.151 603.608C967.745 603.608 952.31 599.831 938.845 592.278C925.545 584.561 915.118 574.051 907.564 560.751C900.011 547.286 896.234 531.933 896.234 514.692C896.234 497.122 900.011 481.687 907.564 468.386C915.118 454.922 925.463 444.413 938.599 436.859C951.899 429.306 967.17 425.529 984.412 425.529C1001.82 425.529 1017.09 429.388 1030.22 437.106C1043.53 444.659 1053.95 455.168 1061.51 468.633C1069.06 481.933 1072.84 497.286 1072.84 514.692C1072.84 531.933 1069.06 547.286 1061.51 560.751C1054.12 574.051 1043.77 584.561 1030.47 592.278C1017.33 599.831 1002.23 603.608 985.151 603.608ZM985.151 572.82C995.66 572.82 1004.86 570.357 1012.74 565.431C1020.78 560.34 1027.02 553.444 1031.46 544.741C1036.05 536.038 1038.35 526.022 1038.35 514.692C1038.35 503.198 1036.05 493.099 1031.46 484.396C1026.86 475.693 1020.54 468.879 1012.49 463.953C1004.44 458.863 995.085 456.317 984.412 456.317C974.067 456.317 964.789 458.863 956.579 463.953C948.533 468.879 942.211 475.693 937.614 484.396C933.016 493.099 930.717 503.198 930.717 514.692C930.717 526.022 933.016 536.038 937.614 544.741C942.211 553.444 948.615 560.34 956.826 565.431C965.036 570.357 974.477 572.82 985.151 572.82Z" fill="white"/>
<path d="M762.561 600.651V428.237H796.304V600.651H762.561ZM789.654 531.193V500.405H860.344V531.193H789.654ZM789.654 459.025V428.237H873.152V459.025H789.654Z" fill="white"/>
<path d="M1906.56 291V272.55H1915.63C1916.58 272.55 1917.51 272.775 1918.39 273.225C1919.3 273.658 1920.04 274.308 1920.62 275.175C1921.22 276.025 1921.52 277.075 1921.52 278.325C1921.52 279.575 1921.21 280.658 1920.6 281.575C1920 282.475 1919.23 283.167 1918.29 283.65C1917.37 284.133 1916.41 284.375 1915.42 284.375H1908.4V281.85H1914.55C1915.42 281.85 1916.2 281.55 1916.88 280.95C1917.58 280.333 1917.93 279.458 1917.93 278.325C1917.93 277.158 1917.58 276.325 1916.88 275.825C1916.2 275.325 1915.45 275.075 1914.63 275.075H1909.86V291H1906.56ZM1917.57 282.425L1922.29 291H1918.6L1914.01 282.425H1917.57ZM1913.5 302C1910.66 302 1908.01 301.483 1905.53 300.45C1903.05 299.417 1900.88 297.983 1899 296.15C1897.12 294.317 1895.65 292.192 1894.59 289.775C1893.53 287.358 1893 284.767 1893 282C1893 279.233 1893.53 276.642 1894.59 274.225C1895.65 271.808 1897.12 269.683 1899 267.85C1900.88 266.017 1903.05 264.583 1905.53 263.55C1908.01 262.517 1910.66 262 1913.5 262C1916.34 262 1918.99 262.517 1921.47 263.55C1923.95 264.583 1926.12 266.017 1928 267.85C1929.88 269.683 1931.35 271.808 1932.41 274.225C1933.47 276.642 1934 279.233 1934 282C1934 284.767 1933.47 287.358 1932.41 289.775C1931.35 292.192 1929.88 294.317 1928 296.15C1926.12 297.983 1923.95 299.417 1921.47 300.45C1918.99 301.483 1916.34 302 1913.5 302ZM1913.5 298.275C1916.57 298.275 1919.37 297.542 1921.88 296.075C1924.41 294.608 1926.42 292.65 1927.93 290.2C1929.43 287.733 1930.18 285 1930.18 282C1930.18 279 1929.43 276.275 1927.93 273.825C1926.42 271.358 1924.41 269.392 1921.88 267.925C1919.37 266.458 1916.57 265.725 1913.5 265.725C1910.42 265.725 1907.62 266.458 1905.09 267.925C1902.58 269.392 1900.58 271.358 1899.07 273.825C1897.57 276.275 1896.82 279 1896.82 282C1896.82 285 1897.57 287.733 1899.07 290.2C1900.58 292.65 1902.58 294.608 1905.09 296.075C1907.62 297.542 1910.42 298.275 1913.5 298.275Z" fill="white"/>
</svg>
